<mxfile host="app.diagrams.net" agent="Mozilla/5.0 (Windows NT 10.0; Win64; x64) AppleWebKit/537.36 (KHTML, like Gecko) Chrome/135.0.0.0 Safari/537.36" version="26.2.9">
  <diagram name="Page-1" id="E4GbsJVxuftSfTgbTamu">
    <mxGraphModel dx="1871" dy="1730" grid="1" gridSize="10" guides="1" tooltips="1" connect="1" arrows="1" fold="1" page="1" pageScale="1" pageWidth="827" pageHeight="1169" math="0" shadow="0">
      <root>
        <mxCell id="0" />
        <mxCell id="1" parent="0" />
        <mxCell id="pGA-41NVkZTWNaM7PnFw-10" value="" style="ellipse;shape=cloud;whiteSpace=wrap;html=1;fillColor=#dae8fc;strokeColor=#6c8ebf;" parent="1" vertex="1">
          <mxGeometry x="-20" y="-50" width="690" height="600" as="geometry" />
        </mxCell>
        <mxCell id="pGA-41NVkZTWNaM7PnFw-2" value="SW01" style="fontColor=#0066CC;verticalAlign=top;verticalLabelPosition=bottom;labelPosition=center;align=center;html=1;outlineConnect=0;fillColor=#CCCCCC;strokeColor=#6881B3;gradientColor=none;gradientDirection=north;strokeWidth=2;shape=mxgraph.networks.switch;" parent="1" vertex="1">
          <mxGeometry x="180" y="200" width="100" height="30" as="geometry" />
        </mxCell>
        <mxCell id="pGA-41NVkZTWNaM7PnFw-3" value="SW03" style="fontColor=#0066CC;verticalAlign=top;verticalLabelPosition=bottom;labelPosition=center;align=center;html=1;outlineConnect=0;fillColor=#CCCCCC;strokeColor=#6881B3;gradientColor=none;gradientDirection=north;strokeWidth=2;shape=mxgraph.networks.switch;" parent="1" vertex="1">
          <mxGeometry x="180" y="280" width="100" height="30" as="geometry" />
        </mxCell>
        <mxCell id="pGA-41NVkZTWNaM7PnFw-4" value="SW02" style="fontColor=#0066CC;verticalAlign=top;verticalLabelPosition=bottom;labelPosition=center;align=center;html=1;outlineConnect=0;fillColor=#CCCCCC;strokeColor=#6881B3;gradientColor=none;gradientDirection=north;strokeWidth=2;shape=mxgraph.networks.switch;" parent="1" vertex="1">
          <mxGeometry x="399" y="200" width="100" height="30" as="geometry" />
        </mxCell>
        <mxCell id="pGA-41NVkZTWNaM7PnFw-5" value="SW04" style="fontColor=#0066CC;verticalAlign=top;verticalLabelPosition=bottom;labelPosition=center;align=center;html=1;outlineConnect=0;fillColor=#CCCCCC;strokeColor=#6881B3;gradientColor=none;gradientDirection=north;strokeWidth=2;shape=mxgraph.networks.switch;" parent="1" vertex="1">
          <mxGeometry x="399" y="280" width="100" height="30" as="geometry" />
        </mxCell>
        <mxCell id="pGA-41NVkZTWNaM7PnFw-6" value="PC01" style="fontColor=#0066CC;verticalAlign=top;verticalLabelPosition=bottom;labelPosition=center;align=center;html=1;outlineConnect=0;fillColor=#CCCCCC;strokeColor=#6881B3;gradientColor=none;gradientDirection=north;strokeWidth=2;shape=mxgraph.networks.laptop;" parent="1" vertex="1">
          <mxGeometry x="180" y="100" width="100" height="55" as="geometry" />
        </mxCell>
        <mxCell id="pGA-41NVkZTWNaM7PnFw-7" value="PC02" style="fontColor=#0066CC;verticalAlign=top;verticalLabelPosition=bottom;labelPosition=center;align=center;html=1;outlineConnect=0;fillColor=#CCCCCC;strokeColor=#6881B3;gradientColor=none;gradientDirection=north;strokeWidth=2;shape=mxgraph.networks.laptop;" parent="1" vertex="1">
          <mxGeometry x="399" y="110" width="100" height="55" as="geometry" />
        </mxCell>
        <object label="PC03" PC01="" id="pGA-41NVkZTWNaM7PnFw-8">
          <mxCell style="fontColor=#0066CC;verticalAlign=top;verticalLabelPosition=bottom;labelPosition=center;align=center;html=1;outlineConnect=0;fillColor=#CCCCCC;strokeColor=#6881B3;gradientColor=none;gradientDirection=north;strokeWidth=2;shape=mxgraph.networks.monitor;" parent="1" vertex="1">
            <mxGeometry x="190" y="370" width="80" height="65" as="geometry" />
          </mxCell>
        </object>
        <mxCell id="pGA-41NVkZTWNaM7PnFw-9" value="PC04" style="fontColor=#0066CC;verticalAlign=top;verticalLabelPosition=bottom;labelPosition=center;align=center;html=1;outlineConnect=0;fillColor=#CCCCCC;strokeColor=#6881B3;gradientColor=none;gradientDirection=north;strokeWidth=2;shape=mxgraph.networks.laptop;" parent="1" vertex="1">
          <mxGeometry x="520" y="340" width="100" height="55" as="geometry" />
        </mxCell>
        <mxCell id="pGA-41NVkZTWNaM7PnFw-12" value="&lt;hr&gt;&lt;hr&gt;" style="endArrow=none;html=1;rounded=0;exitX=1;exitY=0.5;exitDx=0;exitDy=0;exitPerimeter=0;entryX=0;entryY=0.5;entryDx=0;entryDy=0;entryPerimeter=0;fillColor=#fff2cc;endSize=9;strokeWidth=5;strokeColor=#d6b656;" parent="1" source="pGA-41NVkZTWNaM7PnFw-2" target="pGA-41NVkZTWNaM7PnFw-4" edge="1">
          <mxGeometry width="50" height="50" relative="1" as="geometry">
            <mxPoint x="390" y="260" as="sourcePoint" />
            <mxPoint x="390" y="215" as="targetPoint" />
          </mxGeometry>
        </mxCell>
        <mxCell id="pGA-41NVkZTWNaM7PnFw-17" value="&lt;hr&gt;&lt;hr&gt;" style="endArrow=none;html=1;rounded=0;exitX=0.5;exitY=1;exitDx=0;exitDy=0;exitPerimeter=0;fillColor=#fff2cc;endSize=9;strokeWidth=5;strokeColor=#d6b656;" parent="1" source="pGA-41NVkZTWNaM7PnFw-2" target="pGA-41NVkZTWNaM7PnFw-3" edge="1">
          <mxGeometry width="50" height="50" relative="1" as="geometry">
            <mxPoint x="290" y="225" as="sourcePoint" />
            <mxPoint x="409" y="225" as="targetPoint" />
            <Array as="points">
              <mxPoint x="230" y="260" />
            </Array>
          </mxGeometry>
        </mxCell>
        <mxCell id="pGA-41NVkZTWNaM7PnFw-22" value="&lt;hr&gt;&lt;hr&gt;" style="endArrow=none;html=1;rounded=0;fillColor=#fff2cc;endSize=9;strokeWidth=5;strokeColor=#d6b656;" parent="1" source="pGA-41NVkZTWNaM7PnFw-4" target="pGA-41NVkZTWNaM7PnFw-5" edge="1">
          <mxGeometry x="-1" y="190" width="50" height="50" relative="1" as="geometry">
            <mxPoint x="548.02" y="210" as="sourcePoint" />
            <mxPoint x="299.9963147239198" y="298.35851418260745" as="targetPoint" />
            <Array as="points" />
            <mxPoint y="-10" as="offset" />
          </mxGeometry>
        </mxCell>
        <mxCell id="pGA-41NVkZTWNaM7PnFw-25" value="" style="verticalLabelPosition=bottom;verticalAlign=top;html=1;shape=mxgraph.basic.arc;startAngle=0.4898116998457461;endAngle=0.006362805673995916;" parent="1" vertex="1">
          <mxGeometry x="140" y="140" width="90" height="80" as="geometry" />
        </mxCell>
        <mxCell id="pGA-41NVkZTWNaM7PnFw-28" value="" style="endArrow=none;html=1;rounded=0;" parent="1" source="pGA-41NVkZTWNaM7PnFw-8" target="pGA-41NVkZTWNaM7PnFw-3" edge="1">
          <mxGeometry width="50" height="50" relative="1" as="geometry">
            <mxPoint x="210" y="380" as="sourcePoint" />
            <mxPoint x="260" y="330" as="targetPoint" />
          </mxGeometry>
        </mxCell>
        <mxCell id="pGA-41NVkZTWNaM7PnFw-29" value="" style="endArrow=none;html=1;rounded=0;entryX=0.16;entryY=0;entryDx=0;entryDy=0;entryPerimeter=0;" parent="1" target="pGA-41NVkZTWNaM7PnFw-9" edge="1">
          <mxGeometry width="50" height="50" relative="1" as="geometry">
            <mxPoint x="490" y="300" as="sourcePoint" />
            <mxPoint x="540" y="250" as="targetPoint" />
          </mxGeometry>
        </mxCell>
        <mxCell id="pGA-41NVkZTWNaM7PnFw-31" value="" style="shape=partialRectangle;whiteSpace=wrap;html=1;bottom=1;right=1;left=1;top=0;fillColor=none;routingCenterX=-0.5;direction=north;" parent="1" vertex="1">
          <mxGeometry x="490" y="160" width="40" height="55" as="geometry" />
        </mxCell>
      </root>
    </mxGraphModel>
  </diagram>
</mxfile>
